<?xml version="1.0" encoding="utf-8"?>
<!-- Generator: Adobe Illustrator 23.0.4, SVG Export Plug-In . SVG Version: 6.00 Build 0)  -->
<svg version="1.1" id="Layer_1" xmlns="http://www.w3.org/2000/svg" xmlns:xlink="http://www.w3.org/1999/xlink" x="0px" y="0px"
	 viewBox="0 0 583.7 196.4" style="enable-background:new 0 0 583.7 196.4;" xml:space="preserve">
<style type="text/css">
	.st0{fill:#FFFFFF;}
	.st1{fill:#FFFFFF;stroke:#FFFFFF;stroke-miterlimit:10;}
</style>
<polygon class="st0" points="465,56.9 435.3,73.5 405.7,56.9 405.7,23.8 435.3,7.3 465,23.8 "/>
<polygon class="st0" points="431,113.5 401.4,130.1 371.7,113.5 371.7,80.4 401.4,63.9 431,80.4 "/>
<polygon class="st0" points="499.2,113.5 469.6,130.1 440,113.5 440,80.4 469.6,63.9 499.2,80.4 "/>
<polygon class="st0" points="464.7,170 435.1,186.6 405.4,170 405.4,136.9 435.1,120.4 464.7,136.9 "/>
<polygon class="st0" points="532.4,56.9 502.7,73.5 473.1,56.9 473.1,23.8 502.7,7.3 532.4,23.8 "/>
<polygon class="st0" points="567.5,113.5 537.8,130.1 508.2,113.5 508.2,80.4 537.8,63.9 567.5,80.4 "/>
<polygon class="st0" points="532.4,170 502.7,186.6 473.1,170 473.1,136.9 502.7,120.4 532.4,136.9 "/>
<path class="st0" d="M20.1,22.1h5l27.6,40.1h0.1V22.1h4.5v47.4h-5L24.8,29.4h-0.1v40.1h-4.5V22.1z"/>
<path class="st0" d="M64.1,45.7c0.4-8,6-11.5,13.9-11.5c6,0,12.6,1.9,12.6,11v18.2c0,1.6,0.8,2.5,2.5,2.5c0.5,0,1-0.1,1.3-0.3v3.5
	c-0.9,0.2-1.6,0.3-2.7,0.3c-4.2,0-4.9-2.4-4.9-6h-0.1c-2.9,4.4-5.9,7-12.5,7c-6.3,0-11.5-3.1-11.5-10c0-9.6,9.4-10,18.4-11
	c3.5-0.4,5.4-0.9,5.4-4.6c0-5.6-4.1-7-9-7c-5.2,0-9,2.4-9.2,8H64.1z M86.4,50.8h-0.1c-0.5,1-2.4,1.3-3.5,1.5
	c-7.1,1.3-15.9,1.2-15.9,7.9c0,4.2,3.7,6.8,7.6,6.8c6.4,0,12-4.1,12-10.8V50.8z"/>
<path class="st0" d="M103.9,35.2h7v3.5h-7v23.1c0,2.7,0.4,4.3,3.4,4.5c1.2,0,2.4-0.1,3.6-0.2v3.6c-1.3,0-2.5,0.1-3.7,0.1
	c-5.6,0-7.5-1.9-7.4-7.7V38.7h-6v-3.5h6V24.9h4.2V35.2z"/>
<path class="st0" d="M115.3,22.1h4.2v6.7h-4.2V22.1z M115.3,35.2h4.2v34.3h-4.2V35.2z"/>
<path class="st0" d="M156.6,52.4c0,9.8-5.7,18.1-16.2,18.1s-16.2-8.3-16.2-18.1c0-9.8,5.7-18.1,16.2-18.1S156.6,42.5,156.6,52.4z
	 M128.4,52.4c0,7.3,4,14.6,12,14.6s12-7.3,12-14.6c0-7.3-4-14.6-12-14.6S128.4,45,128.4,52.4z"/>
<path class="st0" d="M161.1,35.2h4.2v5.9h0.1c1.5-4.1,6.1-6.9,11-6.9c9.6,0,12.6,5,12.6,13.2v22h-4.2V48.1c0-5.9-1.9-10.4-8.7-10.4
	c-6.6,0-10.6,5-10.8,11.8v20h-4.2V35.2z"/>
<path class="st0" d="M194.8,45.7c0.4-8,6-11.5,13.9-11.5c6,0,12.6,1.9,12.6,11v18.2c0,1.6,0.8,2.5,2.5,2.5c0.5,0,1-0.1,1.3-0.3v3.5
	c-0.9,0.2-1.6,0.3-2.7,0.3c-4.2,0-4.9-2.4-4.9-6h-0.1c-2.9,4.4-5.9,7-12.5,7c-6.3,0-11.5-3.1-11.5-10c0-9.6,9.4-10,18.4-11
	c3.5-0.4,5.4-0.9,5.4-4.6c0-5.6-4.1-7-9-7c-5.2,0-9,2.4-9.2,8H194.8z M217.1,50.8h-0.1c-0.5,1-2.4,1.3-3.5,1.5
	c-7.1,1.3-15.9,1.2-15.9,7.9c0,4.2,3.7,6.8,7.6,6.8c6.4,0,12-4.1,12-10.8V50.8z"/>
<path class="st0" d="M228,22.1h4.2v47.4H228V22.1z"/>
<path class="st0" d="M256.2,22.1h20.1c8,0,15.2,2.8,15.2,11.6c0,5-3.3,9.6-8.2,10.6v0.1c6.1,0.8,10,5.4,10,11.6
	c0,4.5-1.6,13.5-17,13.5h-20.1V22.1z M260.7,42.9h15.5c7.2,0,10.7-3.6,10.7-8c0-5.9-3.7-8.9-10.7-8.9h-15.5V42.9z M260.7,65.6h15.5
	c6.7,0.1,12.5-2.2,12.5-9.8c0-6-4.6-9.2-12.5-9.2h-15.5V65.6z"/>
<path class="st0" d="M300.5,53.5c0.1,6.1,3.3,13.5,11.3,13.5c6.1,0,9.4-3.6,10.8-8.8h4.2c-1.8,7.8-6.3,12.3-14.9,12.3
	c-10.9,0-15.5-8.4-15.5-18.1c0-9,4.6-18.1,15.5-18.1c11,0,15.4,9.6,15.1,19.3H300.5z M322.7,50c-0.2-6.3-4.1-12.2-10.9-12.2
	c-6.8,0-10.6,6-11.3,12.2H322.7z"/>
<path class="st0" d="M333.3,53.5c0.1,6.1,3.3,13.5,11.3,13.5c6.1,0,9.4-3.6,10.8-8.8h4.2c-1.8,7.8-6.3,12.3-14.9,12.3
	c-10.9,0-15.5-8.4-15.5-18.1c0-9,4.6-18.1,15.5-18.1c11,0,15.4,9.6,15.1,19.3H333.3z M355.5,50c-0.2-6.3-4.1-12.2-10.9-12.2
	c-6.8,0-10.6,6-11.3,12.2H355.5z"/>
<path class="st0" d="M20,76.5h13.8c1.9,0,3.6,0.3,4.9,0.8c1.3,0.6,2.4,1.3,3.3,2.2c0.8,0.9,1.5,2,1.8,3.2c0.4,1.2,0.6,2.4,0.6,3.6
	c0,1.3-0.2,2.5-0.6,3.7c-0.4,1.2-1,2.2-1.8,3.1c-0.8,0.9-1.9,1.7-3.3,2.2c-1.3,0.6-3,0.8-4.9,0.8h-7.1v11H20V76.5z M26.7,91h5.2
	c0.8,0,1.5-0.1,2.2-0.2c0.7-0.1,1.3-0.3,1.9-0.7c0.5-0.3,1-0.8,1.3-1.4c0.3-0.6,0.5-1.4,0.5-2.4c0-1-0.2-1.8-0.5-2.4
	c-0.3-0.6-0.8-1.1-1.3-1.4c-0.5-0.3-1.2-0.6-1.9-0.7c-0.7-0.1-1.5-0.2-2.2-0.2h-5.2V91z"/>
<path class="st0" d="M52.3,97.6c0.1,1.9,0.6,3.4,1.5,4.3c0.9,0.9,2.2,1.4,4,1.4c1.2,0,2.3-0.3,3.2-0.9c0.9-0.6,1.4-1.3,1.6-2H68
	c-0.9,2.6-2.2,4.5-4,5.7c-1.8,1.2-3.9,1.8-6.5,1.8c-1.7,0-3.3-0.3-4.7-0.9c-1.4-0.6-2.6-1.4-3.6-2.4c-1-1-1.7-2.3-2.3-3.7
	c-0.5-1.4-0.8-3-0.8-4.7c0-1.7,0.3-3.2,0.8-4.6c0.5-1.4,1.3-2.7,2.3-3.7c1-1,2.2-1.9,3.6-2.5c1.4-0.6,2.9-0.9,4.6-0.9
	c1.9,0,3.5,0.4,4.9,1.1c1.4,0.7,2.6,1.7,3.5,2.9c0.9,1.2,1.6,2.6,2,4.2c0.4,1.6,0.5,3.2,0.4,4.9H52.3z M62.3,93.7
	c-0.3-1.5-0.8-2.7-1.5-3.5C60,89.4,58.9,89,57.4,89c-1,0-1.8,0.2-2.4,0.5s-1.2,0.7-1.5,1.2c-0.4,0.5-0.7,1-0.8,1.5
	c-0.2,0.5-0.3,1-0.3,1.5H62.3z"/>
<path class="st0" d="M76,100c0,0.7,0.1,1.2,0.4,1.7c0.3,0.5,0.6,0.9,1.1,1.2c0.4,0.3,0.9,0.5,1.5,0.7c0.6,0.1,1.1,0.2,1.7,0.2
	c0.4,0,0.9,0,1.4-0.2c0.5-0.1,0.9-0.3,1.3-0.5c0.4-0.2,0.7-0.5,1-0.9c0.3-0.4,0.4-0.8,0.4-1.4c0-0.5-0.2-0.9-0.5-1.2
	c-0.3-0.3-0.8-0.6-1.4-0.9c-0.6-0.3-1.3-0.5-2.2-0.7c-0.9-0.2-1.8-0.4-2.9-0.7c-0.9-0.2-1.8-0.4-2.6-0.7c-0.8-0.3-1.6-0.6-2.3-1.1
	c-0.7-0.4-1.2-1-1.6-1.7c-0.4-0.7-0.6-1.5-0.6-2.5c0-1.4,0.3-2.6,0.8-3.5c0.6-0.9,1.3-1.7,2.2-2.2c0.9-0.5,1.9-0.9,3.1-1.1
	c1.1-0.2,2.3-0.3,3.5-0.3s2.4,0.1,3.5,0.3c1.1,0.2,2.1,0.6,3,1.2c0.9,0.5,1.6,1.3,2.2,2.2c0.6,0.9,0.9,2,1.1,3.4h-5.8
	c-0.1-1.2-0.5-2-1.3-2.4c-0.8-0.4-1.7-0.6-2.8-0.6c-0.3,0-0.7,0-1.1,0.1c-0.4,0-0.8,0.1-1.1,0.3c-0.3,0.1-0.6,0.4-0.8,0.6
	c-0.2,0.3-0.3,0.6-0.3,1.1c0,0.5,0.2,1,0.6,1.3c0.4,0.3,0.9,0.6,1.6,0.8c0.6,0.2,1.4,0.4,2.2,0.6c0.8,0.2,1.7,0.4,2.5,0.6
	c0.9,0.2,1.8,0.4,2.6,0.7c0.8,0.3,1.6,0.7,2.3,1.1c0.7,0.5,1.2,1.1,1.6,1.8c0.4,0.7,0.6,1.6,0.6,2.6c0,1.5-0.3,2.7-0.9,3.7
	c-0.6,1-1.4,1.8-2.3,2.4c-0.9,0.6-2,1-3.2,1.3c-1.2,0.3-2.5,0.4-3.7,0.4c-1.3,0-2.6-0.1-3.8-0.4c-1.2-0.3-2.3-0.7-3.3-1.3
	c-1-0.6-1.7-1.4-2.4-2.4c-0.6-1-1-2.2-1-3.7H76z"/>
<path class="st0" d="M101.4,85h4.5v4.1h-4.5v11c0,1,0.2,1.7,0.5,2.1c0.3,0.3,1,0.5,2.1,0.5c0.7,0,1.3-0.1,1.9-0.2v4.8
	c-0.5,0.1-1.1,0.1-1.7,0.2c-0.6,0-1.2,0-1.8,0c-0.9,0-1.8-0.1-2.7-0.2c-0.8-0.1-1.6-0.4-2.2-0.8s-1.2-0.9-1.5-1.6
	c-0.4-0.7-0.6-1.6-0.6-2.7V89.1h-3.7V85h3.7v-6.7h6.1V85z"/>
<path class="st0" d="M124.7,97c0,1,0.2,1.9,0.6,2.6c0.4,0.7,0.9,1.3,1.5,1.7c0.6,0.4,1.3,0.8,2.1,1c0.8,0.2,1.7,0.3,2.6,0.3
	c0.6,0,1.2,0,1.9-0.2c0.7-0.1,1.3-0.3,1.9-0.6c0.6-0.3,1.1-0.7,1.5-1.2c0.4-0.5,0.6-1.1,0.6-1.9c0-0.8-0.3-1.5-0.8-2
	c-0.5-0.5-1.2-1-2.1-1.3c-0.9-0.4-1.8-0.7-2.9-0.9c-1.1-0.2-2.2-0.5-3.3-0.8c-1.1-0.3-2.3-0.6-3.4-1.1c-1.1-0.4-2.1-1-2.9-1.6
	c-0.9-0.7-1.6-1.5-2.1-2.5c-0.5-1-0.8-2.2-0.8-3.6c0-1.6,0.3-2.9,1-4.1c0.7-1.2,1.6-2.1,2.6-2.9c1.1-0.8,2.3-1.3,3.7-1.7
	c1.4-0.4,2.8-0.6,4.1-0.6c1.6,0,3.1,0.2,4.6,0.5c1.5,0.4,2.8,0.9,3.9,1.7c1.1,0.8,2.1,1.8,2.7,3.1c0.7,1.2,1,2.8,1,4.5h-6.5
	c-0.1-0.9-0.3-1.7-0.6-2.3c-0.3-0.6-0.8-1.1-1.3-1.4c-0.5-0.3-1.2-0.6-1.9-0.7c-0.7-0.1-1.5-0.2-2.3-0.2c-0.5,0-1.1,0.1-1.6,0.2
	c-0.5,0.1-1,0.3-1.5,0.6c-0.4,0.3-0.8,0.7-1.1,1.1c-0.3,0.4-0.4,1-0.4,1.6c0,0.6,0.1,1.1,0.3,1.5c0.2,0.4,0.7,0.7,1.4,1
	c0.7,0.3,1.6,0.6,2.8,0.9c1.2,0.3,2.7,0.7,4.7,1.2c0.4,0.1,0.9,0.2,1.5,0.4c0.6,0.2,1.2,0.4,1.9,0.6c0.7,0.3,1.3,0.6,2,1.1
	c0.7,0.4,1.3,1,1.8,1.6c0.6,0.6,1,1.4,1.4,2.3c0.3,0.9,0.5,1.9,0.5,3c0,1.4-0.3,2.7-0.8,3.9c-0.5,1.2-1.4,2.2-2.4,3.1
	c-1.1,0.9-2.4,1.6-4,2.1c-1.6,0.5-3.4,0.8-5.5,0.8c-1.7,0-3.3-0.2-4.9-0.6c-1.6-0.4-3-1.1-4.2-2c-1.2-0.9-2.2-2-2.9-3.4
	s-1.1-3-1.1-4.9H124.7z"/>
<path class="st0" d="M167.5,107.2h-5.8v-3.1h-0.1c-0.8,1.3-1.8,2.2-3,2.8c-1.2,0.6-2.5,0.9-3.8,0.9c-1.6,0-3-0.2-4-0.7
	s-1.9-1.1-2.5-1.8c-0.6-0.8-1-1.7-1.3-2.9c-0.2-1.1-0.4-2.4-0.4-3.8V85h6.1v12.6c0,1.8,0.3,3.2,0.9,4.1c0.6,0.9,1.6,1.4,3,1.4
	c1.7,0,2.9-0.5,3.6-1.5c0.7-1,1.1-2.6,1.1-4.9V85h6.1V107.2z"/>
<path class="st0" d="M171.4,85h5.8v4.1h0.1c0.3-0.7,0.7-1.3,1.2-1.9c0.5-0.6,1-1.1,1.7-1.5c0.6-0.4,1.3-0.7,2-1s1.5-0.3,2.2-0.3
	c0.5,0,0.9,0.1,1.3,0.2v5.7c-0.3-0.1-0.6-0.1-1-0.2c-0.4,0-0.8-0.1-1.2-0.1c-1.1,0-2.1,0.2-2.8,0.6c-0.8,0.4-1.4,0.9-1.9,1.5
	c-0.5,0.6-0.8,1.4-1,2.3c-0.2,0.9-0.3,1.8-0.3,2.8v10h-6.1V85z"/>
<path class="st0" d="M200.8,107.2h-6.8L186.4,85h6.4l4.7,15.2h0.1l4.7-15.2h6.1L200.8,107.2z"/>
<path class="st0" d="M215.3,97.6c0.1,1.9,0.6,3.4,1.5,4.3c0.9,0.9,2.2,1.4,4,1.4c1.2,0,2.3-0.3,3.2-0.9c0.9-0.6,1.4-1.3,1.6-2h5.4
	c-0.9,2.6-2.2,4.5-4,5.7c-1.8,1.2-3.9,1.8-6.5,1.8c-1.7,0-3.3-0.3-4.7-0.9c-1.4-0.6-2.6-1.4-3.6-2.4c-1-1-1.7-2.3-2.3-3.7
	c-0.5-1.4-0.8-3-0.8-4.7c0-1.7,0.3-3.2,0.8-4.6c0.5-1.4,1.3-2.7,2.3-3.7c1-1,2.2-1.9,3.6-2.5c1.4-0.6,2.9-0.9,4.6-0.9
	c1.9,0,3.5,0.4,4.9,1.1c1.4,0.7,2.6,1.7,3.5,2.9c0.9,1.2,1.6,2.6,2,4.2c0.4,1.6,0.5,3.2,0.4,4.9H215.3z M225.2,93.7
	c-0.3-1.5-0.8-2.7-1.5-3.5c-0.7-0.8-1.8-1.2-3.3-1.2c-1,0-1.8,0.2-2.4,0.5s-1.2,0.7-1.5,1.2c-0.4,0.5-0.7,1-0.8,1.5
	c-0.2,0.5-0.3,1-0.3,1.5H225.2z"/>
<path class="st0" d="M240.5,81.5h-6.1v-5h6.1V81.5z M234.4,85h6.1v22.2h-6.1V85z"/>
<path class="st0" d="M244.8,76.5h6.1v30.7h-6.1V76.5z"/>
<path class="st0" d="M255.2,76.5h6.1v30.7h-6.1V76.5z"/>
<path class="st0" d="M265.2,91.8c0.1-1.4,0.4-2.6,1.1-3.6c0.6-0.9,1.4-1.7,2.4-2.3c1-0.6,2.1-1,3.3-1.2c1.2-0.2,2.4-0.4,3.7-0.4
	c1.1,0,2.2,0.1,3.4,0.2c1.1,0.2,2.2,0.5,3.1,0.9c0.9,0.5,1.7,1.1,2.3,1.9c0.6,0.8,0.9,1.9,0.9,3.2v11.6c0,1,0.1,2,0.2,2.9
	c0.1,0.9,0.3,1.6,0.6,2.1H280c-0.1-0.3-0.2-0.7-0.3-1.1c-0.1-0.4-0.1-0.7-0.2-1.1c-1,1-2.1,1.7-3.4,2.1c-1.3,0.4-2.7,0.6-4,0.6
	c-1.1,0-2.1-0.1-3-0.4c-0.9-0.3-1.7-0.7-2.4-1.2c-0.7-0.5-1.2-1.2-1.6-2.1c-0.4-0.8-0.6-1.8-0.6-3c0-1.3,0.2-2.3,0.6-3.1
	c0.4-0.8,1-1.5,1.7-2c0.7-0.5,1.5-0.9,2.4-1.1c0.9-0.2,1.8-0.4,2.8-0.6c0.9-0.1,1.8-0.3,2.7-0.3c0.9-0.1,1.6-0.2,2.3-0.4
	s1.2-0.4,1.6-0.8s0.6-0.8,0.6-1.4c0-0.7-0.1-1.2-0.3-1.6c-0.2-0.4-0.5-0.7-0.9-0.9s-0.8-0.4-1.2-0.4c-0.5-0.1-1-0.1-1.5-0.1
	c-1.2,0-2.1,0.3-2.8,0.8c-0.7,0.5-1.1,1.4-1.2,2.6H265.2z M279.3,96.3c-0.3,0.2-0.6,0.4-1,0.5c-0.4,0.1-0.8,0.2-1.2,0.3
	s-0.9,0.2-1.4,0.2c-0.5,0.1-1,0.1-1.4,0.2c-0.5,0.1-0.9,0.2-1.4,0.3c-0.4,0.1-0.8,0.3-1.1,0.6c-0.3,0.2-0.6,0.6-0.8,0.9
	c-0.2,0.4-0.3,0.9-0.3,1.4c0,0.6,0.1,1,0.3,1.4c0.2,0.4,0.5,0.6,0.8,0.9c0.3,0.2,0.7,0.4,1.2,0.5c0.5,0.1,0.9,0.1,1.4,0.1
	c1.2,0,2.1-0.2,2.8-0.6c0.7-0.4,1.1-0.9,1.5-1.4s0.5-1.1,0.6-1.7c0.1-0.6,0.1-1,0.1-1.4V96.3z"/>
<path class="st0" d="M289.4,85h5.8v3.1h0.1c0.8-1.3,1.8-2.2,3-2.8s2.5-0.9,3.8-0.9c1.6,0,3,0.2,4,0.7c1,0.4,1.9,1.1,2.5,1.8
	c0.6,0.8,1,1.7,1.3,2.9c0.2,1.1,0.4,2.4,0.4,3.8v13.7h-6.1V94.7c0-1.8-0.3-3.2-0.9-4.1c-0.6-0.9-1.6-1.4-3-1.4
	c-1.7,0-2.9,0.5-3.6,1.5c-0.7,1-1.1,2.6-1.1,4.9v11.7h-6.1V85z"/>
<path class="st0" d="M329.4,92.8c-0.4-2.6-1.9-3.8-4.5-3.8c-1,0-1.8,0.2-2.5,0.7c-0.7,0.4-1.2,1-1.6,1.7c-0.4,0.7-0.7,1.5-0.9,2.3
	s-0.3,1.7-0.3,2.5c0,0.8,0.1,1.6,0.3,2.5c0.2,0.8,0.5,1.6,0.8,2.3c0.4,0.7,0.9,1.2,1.6,1.7c0.7,0.4,1.5,0.6,2.4,0.6
	c1.4,0,2.6-0.4,3.4-1.2c0.8-0.8,1.3-1.9,1.5-3.3h5.9c-0.4,3-1.5,5.2-3.4,6.8c-1.9,1.6-4.3,2.3-7.3,2.3c-1.7,0-3.2-0.3-4.6-0.8
	c-1.4-0.6-2.6-1.3-3.5-2.4c-1-1-1.7-2.2-2.3-3.6c-0.5-1.4-0.8-2.9-0.8-4.6c0-1.7,0.3-3.3,0.8-4.8c0.5-1.5,1.2-2.8,2.2-3.8
	c1-1.1,2.2-1.9,3.6-2.5c1.4-0.6,3-0.9,4.8-0.9c1.3,0,2.6,0.2,3.8,0.5c1.2,0.3,2.3,0.9,3.2,1.6c0.9,0.7,1.7,1.6,2.3,2.6
	c0.6,1.1,1,2.3,1.1,3.7H329.4z"/>
<path class="st0" d="M343.3,97.6c0.1,1.9,0.6,3.4,1.5,4.3c0.9,0.9,2.2,1.4,4,1.4c1.2,0,2.3-0.3,3.2-0.9c0.9-0.6,1.4-1.3,1.6-2h5.4
	c-0.9,2.6-2.2,4.5-4,5.7s-3.9,1.8-6.5,1.8c-1.7,0-3.3-0.3-4.7-0.9c-1.4-0.6-2.6-1.4-3.6-2.4s-1.7-2.3-2.3-3.7
	c-0.5-1.4-0.8-3-0.8-4.7c0-1.7,0.3-3.2,0.8-4.6c0.5-1.4,1.3-2.7,2.3-3.7c1-1,2.2-1.9,3.6-2.5c1.4-0.6,2.9-0.9,4.6-0.9
	c1.9,0,3.5,0.4,4.9,1.1c1.4,0.7,2.6,1.7,3.5,2.9c0.9,1.2,1.6,2.6,2,4.2c0.4,1.6,0.5,3.2,0.4,4.9H343.3z M353.2,93.7
	c-0.3-1.5-0.8-2.7-1.5-3.5c-0.7-0.8-1.8-1.2-3.3-1.2c-1,0-1.8,0.2-2.4,0.5c-0.6,0.3-1.2,0.7-1.5,1.2c-0.4,0.5-0.7,1-0.8,1.5
	c-0.2,0.5-0.3,1-0.3,1.5H353.2z"/>
<path class="st1" d="M20.6,115.5h23c9.3,0,15.4,5.4,15.4,14.8c0,9.3-6.1,14.8-15.4,14.8h-18v22.2h-4.9V115.5z M25.5,140.8h16.9
	c6.8,0,11.5-3.5,11.5-10.6s-4.7-10.6-11.5-10.6H25.5V140.8z"/>
<path class="st1" d="M64.8,115.5h23.7c8.5,0,15.7,4.1,15.7,13.5c0,6.5-3.4,11.9-10.1,13.2v0.1c6.7,0.9,8.7,5.5,9.1,11.7
	c0.2,3.5,0.2,10.6,2.4,13.3h-5.4c-1.2-2-1.2-5.9-1.4-8c-0.4-7.2-1-15.3-10.4-14.9H69.7v23h-4.9V115.5z M69.7,140.1h18.4
	c6,0,11.2-3.8,11.2-10.1c0-6.3-3.8-10.3-11.2-10.3H69.7V140.1z"/>
<path class="st1" d="M133.3,114.4c16.2,0,24.3,12.8,24.3,26.9c0,14.1-8.1,26.9-24.3,26.9c-16.3,0-24.4-12.8-24.4-26.9
	C108.9,127.2,117,114.4,133.3,114.4z M133.3,164.1c13.6,0,19.4-11.4,19.4-22.7c0-11.3-5.8-22.7-19.4-22.7
	c-13.7,0-19.5,11.4-19.5,22.7C113.9,152.7,119.6,164.1,133.3,164.1z"/>
<path class="st1" d="M208.1,167.2h-3.5l-0.7-9.4h-0.1c-3.5,7.4-10.4,10.5-17.9,10.5c-16.3,0-24.4-12.8-24.4-26.9
	c0-14.1,8.1-26.9,24.4-26.9c10.9,0,19.7,5.9,21.6,17.2h-4.9c-0.7-5.9-6.8-13-16.7-13c-13.7,0-19.5,11.4-19.5,22.7
	c0,11.3,5.8,22.7,19.5,22.7c11.4,0,18.1-8,17.9-19h-17.6v-4.2h21.9V167.2z"/>
<path class="st1" d="M216.1,115.5h23.7c8.5,0,15.7,4.1,15.7,13.5c0,6.5-3.4,11.9-10.1,13.2v0.1c6.7,0.9,8.7,5.5,9.1,11.7
	c0.2,3.5,0.2,10.6,2.4,13.3h-5.4c-1.2-2-1.2-5.9-1.4-8c-0.4-7.2-1-15.3-10.4-14.9h-18.7v23h-4.9V115.5z M221.1,140.1h18.4
	c6,0,11.2-3.8,11.2-10.1c0-6.3-3.8-10.3-11.2-10.3h-18.4V140.1z"/>
<path class="st1" d="M278.1,115.5h5.5l20.3,51.7h-5.3l-6.3-16.1h-23.5l-6.2,16.1h-5.3L278.1,115.5z M270.3,146.9h20.4l-10-26.5
	L270.3,146.9z"/>
<path class="st1" d="M307,115.5h7.2l17.9,45.3l17.8-45.3h7.2v51.7h-4.9v-44.7h-0.1l-17.7,44.7h-4.6l-17.7-44.7H312v44.7H307V115.5z"
	/>
</svg>
